<?xml version="1.0" encoding="UTF-8"?>
<!DOCTYPE svg PUBLIC "-//W3C//DTD SVG 1.1//EN" "http://www.w3.org/Graphics/SVG/1.1/DTD/svg11.dtd">
<svg xmlns="http://www.w3.org/2000/svg" version="1.1" width="256px" height="256px" style="shape-rendering:geometricPrecision; text-rendering:geometricPrecision; image-rendering:optimizeQuality; fill-rule:evenodd; clip-rule:evenodd" xmlns:xlink="http://www.w3.org/1999/xlink">
<g><path style="opacity:0.906" fill="#6082b6" d="M 116.5,23.5 C 135.555,23.7667 148.388,32.7667 155,50.5C 158.098,64.1194 155.765,76.7861 148,88.5C 145.074,92.6819 141.907,96.6819 138.5,100.5C 147.846,109.346 157.013,118.346 166,127.5C 186.151,152.92 190.817,180.92 180,211.5C 177.627,217.195 174.46,222.362 170.5,227C 164.361,229.149 160.694,227.149 159.5,221C 178.136,190.927 176.303,162.094 154,134.5C 146.246,125.908 137.746,118.242 128.5,111.5C 127.019,112.48 125.685,113.647 124.5,115C 141.642,126.139 154.475,140.973 163,159.5C 172.438,187.26 165.938,210.427 143.5,229C 135.169,229.195 132.669,225.362 136,217.5C 153.435,202.011 157.768,183.344 149,161.5C 140.748,147.248 129.748,135.581 116,126.5C 111.535,130.635 107.368,135.135 103.5,140C 134.408,141.57 149.242,157.737 148,188.5C 141.021,212.914 124.854,223.747 99.5,221C 79.1789,215.35 68.5123,202.016 67.5,181C 67.4748,174.933 68.6415,169.1 71,163.5C 81.0043,147.162 92.171,131.662 104.5,117C 94.446,108.945 86.6126,99.1115 81,87.5C 73.4552,68.0043 76.6218,50.5043 90.5,35C 98.1679,28.6609 106.835,24.8276 116.5,23.5 Z M 114.5,37.5 C 135.184,37.6811 144.35,48.0144 142,68.5C 139.178,77.4872 134.345,85.1538 127.5,91.5C 118.524,85.3799 112.524,77.2133 109.5,67C 110.255,64.8252 111.088,62.6585 112,60.5C 115,58.1667 118,55.8333 121,53.5C 122.5,45.6667 119.333,42.5 111.5,44C 99.3666,50.1012 94.5333,59.9345 97,73.5C 98.1956,78.2234 100.196,82.5568 103,86.5C 107.5,92.3333 112.667,97.5 118.5,102C 116.983,103.685 115.316,105.185 113.5,106.5C 100.556,96.7713 92.8888,83.938 90.5,68C 91.345,52.0085 99.345,41.8418 114.5,37.5 Z M 101.5,154.5 C 120.898,153.071 132.231,161.904 135.5,181C 132.256,201.113 120.59,209.78 100.5,207C 83.7946,200.088 77.9612,187.921 83,170.5C 87.2145,162.777 93.3811,157.444 101.5,154.5 Z"/></g>
</svg>
